<?xml version="1.0" encoding="UTF-8"?>
<svg width="20px" height="20px" viewBox="0 0 20 20" version="1.1" xmlns="http://www.w3.org/2000/svg" xmlns:xlink="http://www.w3.org/1999/xlink">
    <title>Icon/social media/github/blue</title>
    <g id="Icon/social-media/github/blue" stroke="none" stroke-width="1" fill="none" fill-rule="evenodd">
        <path d="M11.4109258,13.4514297 C13.1646953,13.2443242 15.0299805,12.6066602 15.0299805,9.57749219 C15.0299805,8.71651563 14.726793,8.01486719 14.2329883,7.47272266 C14.3126523,7.26565234 14.5675,6.48433984 14.1368711,5.40036719 C14.1368711,5.40036719 13.4991719,5.19301563 12.0008125,6.19732422 C11.3631133,6.02214063 10.6617109,5.91034375 10.0080859,5.91034375 C9.33825391,5.91034375 8.63660547,6.02214063 8.01483203,6.19732422 C6.50023047,5.19301563 5.86256641,5.40036719 5.86256641,5.40036719 C5.43221875,6.48433984 5.68738281,7.26565234 5.76701172,7.47272266 C5.27267969,8.01483203 4.96977344,8.71651563 4.96977344,9.57749219 C4.96977344,12.6066602 6.83505859,13.2443242 8.58882812,13.4514297 C8.36579687,13.6431016 8.15848047,14.0094648 8.07881641,14.5197227 C7.63226172,14.7109023 6.46837891,15.0777578 5.76701172,13.8660977 C5.76701172,13.8660977 5.35234375,13.116918 4.57127734,13.0691406 C4.57127734,13.0691406 3.78996484,13.0532148 4.50753906,13.5469844 C4.50753906,13.5469844 5.03347656,13.7864688 5.38444141,14.6949414 C5.38444141,14.6949414 5.86256641,16.2097891 8.06260937,15.7313477 L8.06260937,17.086375 C8.06260937,17.2940078 7.90335156,17.5329297 7.50485547,17.4692266 C4.37988672,16.4327852 2.13203125,13.4673203 2.13203125,9.99191406 C2.13203125,5.63932422 5.65525,2.11614063 10.0080859,2.11614063 C14.3445039,2.11614063 17.8838945,5.63935938 17.8680223,9.99191406 C17.8680223,13.4673203 15.6198672,16.4168594 12.4951094,17.4692266 C12.0963672,17.5488906 11.9370742,17.3099688 11.9370742,17.086375 L11.9370742,14.9025391 C11.9371094,14.1687227 11.697625,13.6908789 11.4109258,13.4514297 L11.4109258,13.4514297 Z M19,10.0080859 C19,5.03347656 14.9662773,1 10.0080859,1 C5.03347656,1 1,5.03347656 1,10.0080859 C1,14.9662773 5.03347656,19 10.0080859,19 C14.9662773,19 19,14.9662773 19,10.0080859 L19,10.0080859 Z" id="Shape" fill="#2779FF"></path>
    </g>
</svg>