<?xml version="1.0" encoding="UTF-8"?>
<svg width="20px" height="20px" viewBox="0 0 20 20" version="1.1" xmlns="http://www.w3.org/2000/svg" xmlns:xlink="http://www.w3.org/1999/xlink">
    <title>Icon/social media/google/blue</title>
    <g id="Icon/social-media/google/blue" stroke="none" stroke-width="1" fill="none" fill-rule="evenodd">
        <g id="google-icon" transform="translate(3.000000, 3.000000)" fill="#2779FF" fill-rule="nonzero">
            <path d="M14.4221069,7.52172748 C14.4221069,6.91672472 14.3730145,6.47523165 14.2667698,6.01739325 L7.35821779,6.01739325 L7.35821779,8.74807832 L11.4133821,8.74807832 C11.3316554,9.42669144 10.8901623,10.4486693 9.90904783,11.1353987 L9.89529521,11.2268198 L12.0796516,12.9190126 L12.2309869,12.934118 C13.6208474,11.6505021 14.4221069,9.76188348 14.4221069,7.52172748" id="Path"></path>
            <path d="M7.35821779,14.7164356 C9.34490841,14.7164356 11.0127523,14.0623405 12.2309869,12.934118 L9.90904783,11.1353987 C9.28769975,11.5687191 8.45374961,11.8712205 7.35821779,11.8712205 C5.4123905,11.8712205 3.76089192,10.587661 3.17217813,8.81351601 L3.08588605,8.82084323 L0.814561191,10.5786428 L0.784857776,10.6612149 C1.99486329,13.0648806 4.480312,14.7164356 7.35821779,14.7164356" id="Path"></path>
            <path d="M3.17217813,8.81351601 C3.01684111,8.35567761 2.92694178,7.86509219 2.92694178,7.35821779 C2.92694178,6.85128703 3.01684111,6.36075796 3.16400547,5.90291956 L3.15989095,5.8054112 L0.860102669,4.01937363 L0.784857776,4.05516427 C0.286156045,5.05262409 0,6.17273028 0,7.35821779 C0,8.5437053 0.286156045,9.66375512 0.784857776,10.6612149 L3.17217813,8.81351601" id="Path"></path>
            <path d="M7.35821779,2.84515876 C8.73990565,2.84515876 9.67192779,3.44198885 10.2033765,3.94074694 L12.2800229,1.91313663 C11.004636,0.727649113 9.34490841,0 7.35821779,0 C4.480312,0 1.99486329,1.65149858 0.784857776,4.05516427 L3.16400547,5.90291956 C3.76089192,4.12877463 5.4123905,2.84515876 7.35821779,2.84515876" id="Path"></path>
        </g>
    </g>
</svg>