<?xml version="1.0" encoding="UTF-8"?>
<svg width="20px" height="20px" viewBox="0 0 20 20" version="1.1" xmlns="http://www.w3.org/2000/svg" xmlns:xlink="http://www.w3.org/1999/xlink">
    <title>Icon/social media/twitter/blue</title>
    <g id="Icon/social-media/twitter/blue" stroke="none" stroke-width="1" fill="none" fill-rule="evenodd">
        <path d="M18.3076923,5.31859615 C17.70125,5.58461538 17.0550577,5.76094231 16.3813462,5.84655769 C17.0744231,5.43275 17.6034038,4.78248077 17.8520962,3.99869231 C17.2059038,4.38396154 16.4924423,4.65609615 15.7320962,4.80796154 C15.1185192,4.15463462 14.2440192,3.75 13.2900192,3.75 C11.4390962,3.75 9.94898077,5.25234615 9.94898077,7.09409615 C9.94898077,7.35909615 9.97140385,7.61390385 10.0264423,7.85648077 C7.247,7.72092308 4.78759615,6.38878846 3.13542308,4.3595 C2.84698077,4.85994231 2.67778846,5.43275 2.67778846,6.04938462 C2.67778846,7.20723077 3.27403846,8.23359615 4.16280769,8.82780769 C3.62567308,8.81761538 3.09873077,8.66167308 2.65230769,8.41603846 C2.65230769,8.42623077 2.65230769,8.43948077 2.65230769,8.45273077 C2.65230769,10.0773846 3.81117308,11.4268462 5.33084615,11.7377115 C5.05871154,11.8121154 4.76211538,11.8477885 4.45430769,11.8477885 C4.24026923,11.8477885 4.02419231,11.8355577 3.82136538,11.7907115 C4.25453846,13.1146923 5.48373077,14.0880577 6.94530769,14.1196538 C5.80784615,15.0094423 4.36359615,15.5455577 2.80009615,15.5455577 C2.52592308,15.5455577 2.26296154,15.5333269 2,15.4996923 C3.48094231,16.4547115 5.23605769,17 7.12876923,17 C13.2808462,17 16.6443077,11.9038462 16.6443077,7.4865 C16.6443077,7.33871154 16.6392115,7.19601923 16.6320769,7.05434615 C17.2955962,6.58346154 17.8531154,5.99536538 18.3076923,5.31859615 Z" id="Path" fill="#2779FF" fill-rule="nonzero"></path>
    </g>
</svg>