<?xml version="1.0" encoding="UTF-8"?>
<svg width="80px" height="80px" viewBox="0 0 80 80" version="1.1" xmlns="http://www.w3.org/2000/svg" xmlns:xlink="http://www.w3.org/1999/xlink">
    <title>Congratulations</title>
    <g id="V2" stroke="none" stroke-width="1" fill="none" fill-rule="evenodd">
        <g id="Tag-schools/completion/1" transform="translate(-141.000000, -110.000000)" fill="#2779FF" fill-rule="nonzero">
            <g id="Group-2" transform="translate(141.000000, 110.000000)">
                <g id="Group" transform="translate(33.150852, 46.696288) rotate(45.000000) translate(-33.150852, -46.696288) translate(12.706407, 20.918510)">
                    <path d="M0.701855797,6.47785078 C0.0998737129,6.20422256 -0.16630969,5.49440017 0.107318528,4.89241809 C0.380946747,4.290436 1.09076914,4.0242526 1.69275123,4.29788082 C5.90096791,6.21070657 12.1289007,7.18382107 20.3541597,7.18382107 C28.5794187,7.18382107 34.8073515,6.21070657 39.0155681,4.29788082 C39.6175503,4.0242526 40.3273726,4.290436 40.6010009,4.89241809 C40.8746291,5.49440017 40.6084456,6.20422256 40.0064636,6.47785078 C35.4344545,8.55603673 28.8911498,9.57842809 20.3541597,9.57842809 C11.8171697,9.57842809 5.27386491,8.55603673 0.701855797,6.47785078 Z" id="Path"></path>
                    <path d="M20.3541597,46.6715427 L38.142501,5.53600339 C36.3334606,3.55680755 30.3417165,2.39460702 20.3541597,2.39460702 C10.3666029,2.39460702 4.3748587,3.55680755 2.56581835,5.53600339 L20.3541597,46.6715427 Z M0.157752951,4.7938369 C2.06518936,1.45582318 8.72038101,0 20.3541597,0 C31.9879383,0 38.64313,1.45582318 40.5505664,4.7938369 C40.7375414,5.12104304 40.7595492,5.51718529 40.6099693,5.86308891 L21.4531132,50.1633188 C21.0367785,51.1260927 19.6715409,51.1260927 19.2552062,50.1633188 L0.0983500604,5.86308891 C-0.0512298874,5.51718529 -0.0292219822,5.12104304 0.157752951,4.7938369 Z" id="Shape"></path>
                </g>
                <path d="M73.8018345,12.8027156 C74.4573851,12.7160662 75.0590571,13.1772519 75.1457065,13.8328026 C75.2323554,14.4883533 74.7711702,15.0900253 74.115619,15.1766746 C70.3263126,15.6775373 66.7471731,17.0631743 63.6271193,19.2034873 C63.081835,19.5775451 62.3365602,19.4387381 61.9625024,18.8934532 C61.5884446,18.3481684 61.7272516,17.6028938 62.2725368,17.2288361 C65.7012513,14.8767861 69.6365126,13.3532792 73.8018345,12.8027156 Z" id="Path"></path>
                <path d="M64.8220582,31.9595717 C65.4776088,31.8729224 66.0792807,32.334108 66.1659302,32.9896588 C66.252579,33.6452094 65.7913939,34.2468814 65.1358427,34.3335308 C61.3465364,34.8343935 57.7673966,36.2200306 54.6473435,38.3603434 C54.1020586,38.7344013 53.3567841,38.5955943 52.9827263,38.0503094 C52.6086685,37.5050246 52.7474755,36.7597501 53.2927604,36.3856923 C56.7214743,34.0336423 60.6567361,32.5101354 64.8220582,31.9595717 Z" id="Path"></path>
                <path d="M43.4417375,24.7392 C43.0171428,25.2461262 42.2619959,25.3128691 41.7550697,24.8882744 C41.2481435,24.4636797 41.1814006,23.7085328 41.6059953,23.2016066 C46.6679349,17.1581259 49.4875443,9.54608066 49.4875443,1.49662939 C49.4875443,0.835376919 50.0235954,0.299325878 50.6848479,0.299325878 C51.3461003,0.299325878 51.8821514,0.835376919 51.8821514,1.49662939 C51.8821514,10.1136044 48.8614245,18.2686025 43.4417375,24.7392 Z" id="Path"></path>
                <path d="M25.290325,61.0423015 L23.1196423,60.031223 C23.922582,58.3073933 24.3441706,56.4233668 24.3441706,54.4773098 C24.3441706,51.7189848 23.4956343,49.0911778 21.938621,46.8872924 L23.8943819,45.5055754 C25.7346479,48.1103926 26.7387776,51.2200524 26.7387776,54.4773098 C26.7387776,56.7745 26.2400122,59.0034193 25.290325,61.0423015 Z" id="Path"></path>
                <path d="M32.452928,58.0812203 L30.2861156,57.0618744 C31.4926772,54.4971 32.1266434,51.6897307 32.1266434,48.7901181 C32.1266434,43.7519041 30.2052206,39.0183 26.8143159,35.4298625 L28.5547847,33.7852012 C32.3617097,37.8138936 34.5212505,43.1341234 34.5212505,48.7901181 C34.5212505,52.0439831 33.8087316,55.1992041 32.452928,58.0812203 Z" id="Path"></path>
                <path d="M37.8488649,56.1435881 L35.9108083,54.7371456 C39.0374097,50.4287344 40.7472285,45.2499632 40.7472285,39.8103417 C40.7472285,35.0199063 39.4223274,30.4275341 36.9573551,26.4434411 L38.9937196,25.1835352 C41.6912246,29.5434669 43.1418356,34.5715748 43.1418356,39.8103417 C43.1418356,45.7594637 41.2697847,51.42961 37.8488649,56.1435881 Z" id="Path"></path>
                <path d="M48.3905222,51.9486483 L46.3491836,50.6968178 C48.414953,47.328203 49.6723125,43.5203557 50.0000295,39.5255832 L52.3866191,39.7213706 C52.0280024,44.0928014 50.6513258,48.2619946 48.3905222,51.9486483 Z" id="Path"></path>
                <path d="M32.7349892,34.8220146 C32.3893057,35.3857147 31.6521047,35.5624521 31.0884046,35.2167686 C30.5247045,34.8710852 30.3479671,34.1338842 30.6936506,33.5701841 C31.9724801,31.4848186 32.94503,29.2243887 33.5766477,26.8513351 C33.7467269,26.2123298 34.4026196,25.83219 35.041625,26.0022692 C35.6806304,26.1723485 36.0607701,26.8282411 35.8906909,27.4672465 C35.1991878,30.0652961 34.134528,32.5398106 32.7349892,34.8220146 Z" id="Path" transform="translate(33.224058, 30.677632) rotate(-58.000000) translate(-33.224058, -30.677632) "></path>
                <circle id="Oval" cx="36.9158575" cy="38.0143865" r="1.19730351"></circle>
                <path d="M39.0111386,12.5716869 C36.8620681,12.5716869 35.1199022,10.829521 35.1199022,8.68045046 C35.1199022,6.53137991 36.8620681,4.78921404 39.0111386,4.78921404 C41.1602092,4.78921404 42.902375,6.53137991 42.902375,8.68045046 C42.902375,10.829521 41.1602092,12.5716869 39.0111386,12.5716869 Z M39.0111386,10.1770798 C39.8377042,10.1770798 40.507768,9.50701606 40.507768,8.68045046 C40.507768,7.85388485 39.8377042,7.18382107 39.0111386,7.18382107 C38.184573,7.18382107 37.5145092,7.85388485 37.5145092,8.68045046 C37.5145092,9.50701606 38.184573,10.1770798 39.0111386,10.1770798 Z" id="Shape"></path>
                <path d="M63.5558606,7.78247282 C61.4067901,7.78247282 59.6646242,6.04030695 59.6646242,3.89123641 C59.6646242,1.74216587 61.4067901,0 63.5558606,0 C65.7049312,0 67.447097,1.74216587 67.447097,3.89123641 C67.447097,6.04030695 65.7049312,7.78247282 63.5558606,7.78247282 Z M63.5558606,5.3878658 C64.3824263,5.3878658 65.05249,4.71780201 65.05249,3.89123641 C65.05249,3.06467081 64.3824263,2.39460702 63.5558606,2.39460702 C62.7292949,2.39460702 62.0592312,3.06467081 62.0592312,3.89123641 C62.0592312,4.71780201 62.7292949,5.3878658 63.5558606,5.3878658 Z" id="Shape"></path>
                <path d="M71.9369852,29.9325878 C69.7879146,29.9325878 68.0457488,28.1904219 68.0457488,26.0413514 C68.0457488,23.8922808 69.7879146,22.150115 71.9369852,22.150115 C74.0860558,22.150115 75.8282216,23.8922808 75.8282216,26.0413514 C75.8282216,28.1904219 74.0860558,29.9325878 71.9369852,29.9325878 Z M71.9369852,27.5379808 C72.7635508,27.5379808 73.4336146,26.867917 73.4336146,26.0413514 C73.4336146,25.2147858 72.7635508,24.544722 71.9369852,24.544722 C71.1104195,24.544722 70.4403558,25.2147858 70.4403558,26.0413514 C70.4403558,26.867917 71.1104195,27.5379808 71.9369852,27.5379808 Z" id="Shape"></path>
                <path d="M54.2767584,19.7555079 C54.2767584,19.0942555 54.8128094,18.5582044 55.4740619,18.5582044 C56.1353144,18.5582044 56.6713654,19.0942555 56.6713654,19.7555079 L56.6713654,24.544722 C56.6713654,25.2059744 56.1353144,25.7420255 55.4740619,25.7420255 C54.8128094,25.7420255 54.2767584,25.2059744 54.2767584,24.544722 L54.2767584,19.7555079 Z" id="Path"></path>
                <path d="M53.0794549,23.3474185 C52.4182024,23.3474185 51.8821514,22.8113674 51.8821514,22.150115 C51.8821514,21.4888625 52.4182024,20.9528114 53.0794549,20.9528114 L57.8686689,20.9528114 C58.5299214,20.9528114 59.0659724,21.4888625 59.0659724,22.150115 C59.0659724,22.8113674 58.5299214,23.3474185 57.8686689,23.3474185 L53.0794549,23.3474185 Z" id="Path"></path>
                <path d="M67.447097,52.6813545 C67.447097,52.020102 67.9831484,51.484051 68.6444005,51.484051 C69.3056527,51.484051 69.841704,52.020102 69.841704,52.6813545 L69.841704,57.4705685 C69.841704,58.1318207 69.3056527,58.667872 68.6444005,58.667872 C67.9831484,58.667872 67.447097,58.1318207 67.447097,57.4705685 L67.447097,52.6813545 Z" id="Path"></path>
                <path d="M66.2497935,56.273265 C65.5885413,56.273265 65.05249,55.7372137 65.05249,55.0759615 C65.05249,54.4147093 65.5885413,53.878658 66.2497935,53.878658 L71.0390075,53.878658 C71.7002597,53.878658 72.2363111,54.4147093 72.2363111,55.0759615 C72.2363111,55.7372137 71.7002597,56.273265 71.0390075,56.273265 L66.2497935,56.273265 Z" id="Path"></path>
                <path d="M24.3441706,7.18382107 C24.3441706,6.5225686 24.8802217,5.98651756 25.5414741,5.98651756 C26.2027266,5.98651756 26.7387776,6.5225686 26.7387776,7.18382107 L26.7387776,11.9730351 C26.7387776,12.6342876 26.2027266,13.1703386 25.5414741,13.1703386 C24.8802217,13.1703386 24.3441706,12.6342876 24.3441706,11.9730351 L24.3441706,7.18382107 Z" id="Path"></path>
                <path d="M23.1468671,10.7757316 C22.4856146,10.7757316 21.9495636,10.2396806 21.9495636,9.57842809 C21.9495636,8.91717562 22.4856146,8.38112458 23.1468671,8.38112458 L27.9360811,8.38112458 C28.5973336,8.38112458 29.1333847,8.91717562 29.1333847,9.57842809 C29.1333847,10.2396806 28.5973336,10.7757316 27.9360811,10.7757316 L23.1468671,10.7757316 Z" id="Path"></path>
                <circle id="Oval" cx="69.841704" cy="38.3137124" r="1.19730351"></circle>
                <circle id="Oval" cx="74.0322663" cy="47.8921404" r="1.19730351"></circle>
                <circle id="Oval" cx="56.6713654" cy="11.3743834" r="1.19730351"></circle>
                <circle id="Oval" cx="78.2228286" cy="14.3676421" r="1.19730351"></circle>
                <circle id="Oval" cx="31.5279917" cy="2.99325878" r="1.19730351"></circle>
            </g>
        </g>
    </g>
</svg>