<svg xmlns="http://www.w3.org/2000/svg" width="20" height="20" viewBox="-2 1 20 20">
    <g fill="none" fill-rule="evenodd">
        <g fill="#FFF" fill-rule="nonzero">
            <g>
                <g>
                    <g>
                        <path d="M3.477 14.945c-.168.002-.333-.051-.469-.15-.266-.194-.381-.522-.316-.902L3.38 9.88c.022-.128-.059-.378-.152-.468L.313 6.572c-.274-.27-.376-.603-.274-.916.101-.313.378-.524.76-.58l4.028-.585c.13-.019.341-.173.399-.29l1.8-3.65c.171-.345.458-.544.786-.544s.615.199.786.544l1.8 3.65c.058.117.27.271.4.29l4.027.585c.382.056.659.267.76.58.102.314 0 .646-.274.916l-2.915 2.84c-.091.092-.174.34-.152.469l.688 4.012c.065.38-.05.708-.316.902-.266.193-.614.2-.956.021L8.06 12.922c-.115-.06-.378-.06-.493 0l-3.602 1.894c-.15.082-.317.126-.487.13zM1.564 6.151l2.483 2.421c.372.362.578.996.489 1.507l-.587 3.418 3.07-1.613c.458-.242 1.126-.242 1.585 0l3.07 1.614-.587-3.418c-.088-.512.118-1.145.488-1.507l2.484-2.421-3.43-.5c-.513-.074-1.052-.466-1.281-.93l-1.536-3.11-1.534 3.11c-.23.464-.769.856-1.282.93l-3.432.5z" transform="translate(-24 -258) translate(24 257) translate(0 1) translate(0 3)"/>
                    </g>
                </g>
            </g>
        </g>
    </g>
</svg>
